<?xml version="1.0" standalone="no"?>
<!DOCTYPE svg PUBLIC "-//W3C//DTD SVG 20010904//EN"
 "http://www.w3.org/TR/2001/REC-SVG-20010904/DTD/svg10.dtd">
<svg version="1.0" xmlns="http://www.w3.org/2000/svg"
 width="700.000000pt" height="700.000000pt" viewBox="0 0 700.000000 700.000000"
 preserveAspectRatio="xMidYMid meet">
<metadata>
Created by potrace 1.14, written by Peter Selinger 2001-2017
</metadata>
<g transform="translate(0.000000,700.000000) scale(0.100000,-0.100000)"
fill="#000000" stroke="none">
<path d="M0 3500 l0 -3500 3500 0 3500 0 0 3500 0 3500 -3500 0 -3500 0 0
-3500z m3950 2909 c535 -44 1134 -207 1481 -404 113 -64 98 -25 134 -345 147
-1326 174 -1994 105 -2638 -49 -463 -153 -840 -324 -1181 -124 -247 -243 -411
-450 -617 -322 -321 -687 -537 -1226 -724 l-96 -34 -54 18 c-552 177 -1020
458 -1336 802 -119 130 -170 196 -256 329 -393 610 -537 1410 -473 2635 18
347 51 721 111 1270 53 484 28 424 214 519 415 213 996 350 1630 385 95 5 396
-3 540 -15z"/>
<path d="M3235 6245 c-515 -45 -1043 -180 -1386 -357 -71 -36 -77 -42 -82 -76
-21 -132 -103 -955 -133 -1327 -21 -272 -30 -971 -15 -1201 45 -679 190 -1185
459 -1598 24 -38 50 -76 57 -85 8 -9 42 -52 77 -96 274 -345 694 -624 1233
-819 l129 -47 106 37 c284 100 574 245 785 393 256 180 493 429 643 677 108
180 213 412 257 570 103 369 144 622 166 1014 20 355 1 1003 -41 1450 -6 58
-15 157 -20 220 -12 130 -90 844 -93 846 -10 8 -220 109 -260 126 -546 219
-1275 325 -1882 273z m850 -193 c377 -51 744 -147 1019 -268 89 -39 106 -50
110 -73 4 -14 15 -114 26 -221 11 -107 22 -206 25 -220 4 -23 42 -426 64 -695
43 -509 43 -1184 0 -1545 -116 -968 -481 -1561 -1214 -1968 -105 -59 -338
-163 -474 -212 -63 -23 -64 -23 -115 -6 -287 99 -598 260 -810 420 -100 75
-288 256 -369 355 -270 330 -440 762 -516 1311 -39 283 -46 414 -45 820 0 540
21 821 141 1928 6 53 6 53 62 82 71 35 219 93 336 130 285 91 556 143 950 184
22 2 180 2 350 1 239 -3 344 -8 460 -23z"/>
<path d="M3390 5830 c-20 -20 -26 -65 -11 -88 4 -7 20 -16 35 -20 l27 -7 -20
-27 c-26 -32 -26 -33 -1 -35 24 -2 77 70 86 116 5 23 1 35 -19 55 -31 31 -70
33 -97 6z m68 -22 c27 -27 -5 -73 -38 -53 -14 9 -12 52 3 58 19 8 22 8 35 -5z"/>
<path d="M3580 5843 c-17 -6 -40 -32 -40 -45 0 -14 37 -9 50 6 14 18 40 10 40
-13 0 -9 -20 -37 -45 -61 -64 -63 -61 -76 20 -77 57 0 65 2 65 18 0 15 -8 19
-37 19 l-37 0 37 36 c25 24 37 45 37 64 0 45 -42 70 -90 53z"/>
<path d="M3260 5745 c0 -88 1 -95 20 -95 19 0 20 7 20 95 0 88 -1 95 -20 95
-19 0 -20 -7 -20 -95z"/>
<path d="M3740 5793 c-50 -81 -32 -143 42 -143 74 0 93 106 22 124 -25 7 -25
8 -10 31 21 31 20 35 -4 35 -13 0 -30 -17 -50 -47z m64 -65 c14 -22 -12 -52
-37 -42 -17 6 -23 44 -10 58 11 11 35 3 47 -16z"/>
<path d="M2950 5735 c0 -13 21 -15 125 -15 104 0 125 2 125 15 0 13 -21 15
-125 15 -104 0 -125 -2 -125 -15z"/>
<path d="M3910 5735 c0 -13 21 -15 130 -15 109 0 130 2 130 15 0 13 -21 15
-130 15 -109 0 -130 -2 -130 -15z"/>
<path d="M2190 5135 l0 -395 105 0 105 0 0 240 0 241 93 -3 92 -3 3 -237 2
-238 100 0 100 0 0 395 0 395 -300 0 -300 0 0 -395z"/>
<path d="M2976 5508 c-3 -13 -12 -77 -20 -143 -9 -66 -29 -220 -46 -343 -16
-123 -30 -237 -30 -253 l0 -29 94 0 93 0 7 46 c3 26 6 62 6 80 l0 34 104 0
103 0 7 -77 c3 -42 8 -78 10 -80 2 -2 46 -2 97 -1 l94 3 -46 390 c-26 215 -48
391 -48 393 -1 1 -95 2 -211 2 -209 0 -210 0 -214 -22z m278 -220 c3 -29 7
-82 8 -118 l3 -64 -80 1 c-44 1 -80 5 -80 10 0 4 4 56 9 116 l8 107 63 0 64 0
5 -52z"/>
<path d="M3600 5135 l0 -395 295 0 295 0 0 395 0 395 -295 0 -295 0 0 -395z
m390 0 l0 -205 -95 0 -95 0 0 205 0 205 95 0 95 0 0 -205z"/>
<path d="M4300 5135 l0 -395 105 0 105 0 0 145 0 145 43 0 42 0 60 -145 59
-145 113 0 c62 0 113 4 113 8 0 5 -43 95 -95 200 -52 106 -95 194 -95 197 0 2
41 88 90 191 50 103 90 188 90 190 0 2 -49 4 -108 4 l-109 0 -64 -145 -64
-144 -37 -1 -38 0 0 145 0 145 -105 0 -105 0 0 -395z"/>
<path d="M2740 4549 c-83 -9 -146 -50 -165 -107 -2 -10 -27 -25 -54 -35 -58
-20 -91 -59 -98 -118 -6 -39 -5 -40 20 -34 14 4 90 8 169 8 136 2 145 1 193
-24 28 -14 65 -46 84 -70 27 -35 39 -43 61 -41 25 3 28 -1 44 -56 9 -32 16
-70 16 -84 0 -22 3 -25 26 -20 l27 5 -5 -64 c-3 -35 -8 -72 -13 -81 -6 -15 -2
-18 19 -18 30 0 33 -14 12 -65 -10 -23 -24 -37 -42 -41 -29 -7 -20 -15 -152
130 -76 83 -171 110 -216 61 -38 -40 -50 -103 -43 -218 9 -135 63 -357 87
-357 4 0 17 12 31 26 54 58 194 140 326 189 96 36 288 73 423 81 175 10 388
-16 550 -67 102 -31 258 -114 333 -175 38 -30 70 -54 72 -52 8 8 46 138 61
207 22 105 23 286 1 328 -55 104 -163 76 -289 -73 -74 -89 -99 -101 -132 -65
-9 10 -20 35 -23 55 -5 34 -4 36 21 36 23 0 25 3 17 18 -5 10 -13 46 -17 80
l-7 62 32 0 c28 0 31 3 31 33 0 18 7 55 16 81 15 45 18 48 45 42 22 -4 29 -1
34 14 10 32 94 98 147 116 42 14 73 15 182 10 72 -4 139 -9 149 -12 21 -7 23
23 3 69 -20 48 -52 76 -99 88 -35 9 -45 18 -62 52 -42 86 -185 115 -330 67
-45 -15 -83 -21 -120 -18 -65 4 -70 -8 -25 -54 17 -17 30 -31 28 -33 -2 -1
-30 -7 -63 -14 -63 -14 -150 -55 -200 -96 l-30 -25 30 0 c39 0 75 -10 75 -20
0 -5 -17 -14 -37 -20 -49 -16 -99 -46 -146 -87 l-37 -33 27 0 c28 0 62 -15 53
-23 -3 -3 -20 -12 -39 -22 -33 -17 -121 -92 -121 -104 0 -3 12 -7 26 -8 32 -1
56 -23 34 -31 -8 -3 -36 -25 -62 -50 l-48 -45 -19 25 c-11 13 -38 37 -61 53
-44 30 -40 43 13 47 20 2 24 6 17 18 -14 26 -54 58 -109 89 -50 27 -52 30 -33
40 11 6 31 11 44 11 21 1 20 4 -17 36 -22 20 -70 50 -107 67 -37 18 -68 35
-68 38 0 8 37 19 70 19 25 1 24 1 -10 31 -49 42 -124 76 -200 92 -60 12 -63
14 -43 25 18 10 53 59 53 74 0 2 -25 1 -56 0 -35 -3 -74 3 -107 14 -70 23
-131 30 -197 23z m-5 -138 c-15 -30 -36 -38 -69 -25 -25 9 -19 24 9 24 14 0
35 11 47 26 28 31 35 17 13 -25z m1740 -1 c28 0 34 -15 9 -24 -43 -17 -67 -2
-80 49 l-7 30 26 -27 c15 -17 37 -28 52 -28z"/>
<path d="M4542 3924 c72 -82 82 -305 22 -512 -31 -107 -32 -165 -2 -186 50
-36 142 -13 195 47 59 67 97 242 74 345 -31 146 -112 233 -296 321 -5 2 -2 -4
7 -15z"/>
<path d="M2524 3894 c-69 -41 -115 -83 -155 -141 -103 -148 -63 -447 70 -521
57 -32 138 -26 163 12 15 21 8 86 -17 165 -61 192 -55 424 13 504 26 29 -7 21
-74 -19z"/>
<path d="M3455 3524 c-287 -30 -511 -120 -667 -267 -27 -24 -48 -49 -48 -54 0
-22 100 -207 163 -300 126 -188 285 -358 450 -483 107 -81 219 -150 231 -143
43 25 199 132 236 161 72 58 227 211 295 292 86 103 183 250 245 371 l52 101
-43 45 c-120 123 -356 232 -569 263 -78 11 -289 20 -345 14z m204 -80 l61 -7
0 -489 0 -488 -46 -33 c-107 -75 -91 -74 -178 -17 l-76 50 2 487 3 488 45 6
c67 9 120 10 189 3z m-459 -409 c-1 -275 -4 -355 -14 -355 -16 0 -60 47 -130
139 l-56 73 0 209 c0 206 0 208 23 221 33 19 150 67 165 67 10 1 12 -71 12
-354z m860 317 l85 -37 3 -208 2 -209 -37 -51 c-44 -61 -142 -167 -155 -167
-4 0 -8 160 -8 355 0 278 3 355 13 354 6 0 50 -17 97 -37z"/>
<path d="M2310 3256 c0 -43 42 -327 54 -367 42 -136 133 -224 252 -244 21 -4
47 -9 58 -12 16 -4 15 0 -8 38 -45 73 -92 171 -111 229 -45 139 -143 299 -214
349 -25 18 -31 19 -31 7z"/>
<path d="M4766 3208 c-68 -71 -143 -207 -185 -338 -12 -36 -43 -103 -71 -149
-27 -46 -50 -85 -50 -86 0 -1 22 1 49 6 79 12 148 47 193 98 50 57 73 108 93
209 20 105 47 314 40 321 -3 3 -34 -25 -69 -61z"/>
<path d="M2587 3132 c-26 -29 -21 -114 12 -198 30 -76 136 -280 150 -289 14
-8 24 136 17 216 -20 198 -115 342 -179 271z"/>
<path d="M4477 3126 c-60 -55 -97 -189 -96 -340 1 -56 4 -112 8 -126 6 -23 8
-22 33 20 92 158 158 320 158 387 0 76 -52 106 -103 59z"/>
<path d="M2850 2745 c-27 -96 8 -205 102 -315 69 -82 133 -176 163 -241 l23
-50 27 57 c35 75 38 151 7 214 -12 25 -74 104 -138 175 -64 72 -129 147 -144
167 l-28 38 -12 -45z"/>
<path d="M4222 2712 c-34 -42 -102 -122 -151 -176 -88 -98 -121 -158 -121
-221 0 -35 38 -151 54 -164 12 -10 15 -6 21 18 8 38 80 149 171 263 83 104
104 157 103 253 -1 113 -5 115 -77 27z"/>
<path d="M2461 2570 c44 -114 70 -258 76 -415 5 -135 2 -163 -21 -279 -15 -71
-31 -137 -37 -147 -14 -27 -3 -24 52 16 91 67 151 174 164 291 17 150 -77 376
-231 559 l-25 30 22 -55z"/>
<path d="M4643 2543 c-75 -103 -110 -162 -143 -242 -96 -233 -47 -439 134
-569 l45 -33 -19 57 c-71 205 -66 527 10 767 15 48 27 87 25 87 -2 0 -25 -30
-52 -67z"/>
<path d="M2663 2468 c76 -167 108 -300 116 -483 l6 -140 63 59 c84 80 132 174
132 260 0 156 -158 344 -313 372 l-38 6 34 -74z"/>
<path d="M4455 2531 c-77 -19 -148 -72 -204 -150 -61 -87 -83 -145 -83 -219
-1 -81 41 -168 114 -241 85 -86 83 -87 84 52 0 99 6 143 28 231 29 113 86 274
112 314 13 20 13 22 -3 21 -10 -1 -31 -4 -48 -8z"/>
<path d="M3760 2261 c-47 -44 -173 -112 -198 -106 -27 7 -112 57 -165 98 -21
16 -39 28 -40 26 -2 -2 -14 -26 -28 -53 -38 -77 -134 -171 -196 -192 -29 -10
-53 -22 -53 -25 0 -19 -119 -155 -173 -200 -62 -50 -208 -129 -240 -129 -30 0
-18 -22 52 -91 112 -109 237 -159 402 -159 79 0 80 0 111 -35 71 -82 193 -127
343 -127 77 0 115 5 165 22 76 25 150 70 184 111 24 28 28 29 108 29 156 0
293 55 396 158 34 35 62 69 62 75 0 7 -24 21 -52 31 -119 41 -251 145 -335
263 -24 35 -49 63 -54 63 -5 0 -30 10 -55 21 -61 29 -126 97 -172 178 l-37 66
-25 -24z m-323 -343 c-10 -131 -53 -225 -140 -305 -49 -45 -72 -54 -63 -25 3
9 12 43 21 75 10 33 28 84 42 115 32 72 125 222 137 222 5 0 6 -35 3 -82z
m353 -27 c79 -135 143 -321 111 -321 -6 0 -35 25 -65 55 -82 83 -126 191 -126
307 0 87 8 83 80 -41z m-178 -177 c9 -59 9 -91 -1 -151 -14 -86 -26 -123 -39
-123 -14 0 -42 133 -42 201 0 60 22 178 37 202 10 17 32 -45 45 -129z"/>
</g>
</svg>
